<?xml version="1.0" standalone="no"?>
<!DOCTYPE svg PUBLIC "-//W3C//DTD SVG 1.1//EN" "http://www.w3.org/Graphics/SVG/1.1/DTD/svg11.dtd" >
<svg>
<metadata>
Created by FontForge 20110222 at Wed Jan 14 23:13:33 2015
 By deploy user
(c) COPYRIGHT H. BERTHOLD AG 1992 Alle Rechte vorbehalten.
</metadata>
<defs>
<font id="FuturaBQ-Bold" horiz-adv-x="667" >
  <font-face 
    font-family="Futura BQ"
    font-weight="500"
    font-stretch="normal"
    units-per-em="1000"
    panose-1="0 0 0 0 0 0 0 0 0 0"
    ascent="800"
    descent="-200"
    x-height="483"
    cap-height="706"
    bbox="-177 -262 1096 967"
    underline-thickness="50"
    underline-position="-75"
    unicode-range="U+0020-FB02"
  />
<missing-glyph horiz-adv-x="271" 
 />
    <glyph glyph-name=".notdef" horiz-adv-x="271" 
 />
    <glyph glyph-name=".null" horiz-adv-x="0" 
 />
    <glyph glyph-name="nonmarkingreturn" horiz-adv-x="333" 
 />
    <glyph glyph-name="space" unicode=" " horiz-adv-x="271" 
 />
    <glyph glyph-name="exclam" unicode="!" horiz-adv-x="313" 
d="M72 706h188v-462h-188v462zM88 17q-32 36 -32 77q0 45 32 77t77 32q46 0 77.5 -32t31.5 -77q0 -46 -32 -77.5t-77 -31.5t-77 32z" />
    <glyph glyph-name="quotedbl" unicode="&#x22;" horiz-adv-x="396" 
d="M319 408h-31l-55 250q-3 27 -1 37q4 26 25.5 40t48.5 14q30 0 46 -15t20 -33q2 -11 0 -31zM111 408h-32l-54 250q-4 23 -1 37q4 26 25.5 40t48.5 14q24 0 42.5 -12.5t23.5 -35.5q1 -10 0 -31z" />
    <glyph glyph-name="numbersign" unicode="#" 
d="M459 0h-126l27 186h-99l-26 -186h-124l25 186h-94v124h112l13 95h-100v124h117l25 177h124l-25 -177h100l24 177h125l-24 -177h91v-124h-109l-12 -95h98v-124h-116zM377 310l14 95h-100l-13 -95h99z" />
    <glyph glyph-name="dollar" unicode="$" 
d="M284 822h101v-99q119 -12 192 -42l-42 -148q-34 18 -62 26.5t-87 15.5v-137q38 -4 57 -7q80 -13 120 -43t59 -75q16 -40 16 -88q0 -44 -14 -82q-38 -98 -152 -140q-26 -9 -84 -17v-107h-100v105q-44 4 -68 8q-80 15 -193 84l58 139q2 -1 16.5 -10t27 -15.5t31 -16
t40 -17.5t42.5 -14q22 -6 45 -9l-1 162q-76 11 -115 27q-119 50 -119 176q0 90 54 148q45 50 124 69q18 4 54 8v99zM286 453l-1 120q-44 -9 -58 -32q-9 -18 -9 -28q0 -11 7 -23q13 -26 61 -37zM387 280v-143q56 14 73 43q9 18 9 32q0 12 -8 28q-7 13 -21 21.5t-23.5 11.5
t-29.5 7z" />
    <glyph glyph-name="percent" unicode="%" horiz-adv-x="958" 
d="M208 714q72 0 115 -44q62 -63 62 -192q0 -44 -9 -77q-13 -59 -43 -91.5t-63 -44.5q-32 -10 -68 -10q-44 0 -70 12q-44 19 -75.5 74t-31.5 142q0 42 9 84q25 102 104 136q28 11 70 11zM159 581q-15 -30 -15 -88q0 -39 7 -70q12 -68 57 -66q58 0 58 121q0 93 -32 123
q-12 12 -31 12q-29 0 -44 -32zM751 449q72 0 115 -43q62 -63 62 -193q0 -42 -8 -77q-25 -105 -107 -135q-29 -11 -67 -11q-42 0 -71 12q-43 19 -74.5 74t-31.5 142q0 47 9 84q24 103 104 136q28 11 69 11zM703 316q-15 -30 -15 -88q0 -39 6 -70q13 -66 57 -66q59 0 59 121
q0 93 -32 123q-15 12 -31 12q-29 0 -44 -32zM627 736l61 -33l-365 -724l-64 31z" />
    <glyph glyph-name="ampersand" unicode="&#x26;" horiz-adv-x="771" 
d="M458 353l72 -83q58 55 95 103l104 -120q-21 -22 -43 -43q-10 -10 -57 -52l143 -158h-223l-52 58q-33 -21 -42 -26q-82 -46 -174 -46q-72 0 -122 25q-24 12 -45 32q-71 65 -71 159q0 47 21 86q14 27 40 47.5t46.5 30.5t57.5 25q-30 44 -43 74.5t-13 72.5q0 51 23 92
q52 96 196 96q61 0 106 -18.5t68 -48.5t33.5 -60t10.5 -59q0 -110 -131 -187zM369 453q17 9 25 14q48 36 48 77q0 18 -13 35.5t-45 17.5t-44.5 -18.5t-12.5 -38.5q0 -33 42 -87zM296 286q-12 -6 -19 -10q-40 -20 -40 -58q0 -16 7 -26q22 -47 75 -47q32 1 78 27
q-7 8 -22 24.5t-22 24.5q-24 26 -35 39q-4 4 -11 13t-11 13z" />
    <glyph glyph-name="quotesingle" unicode="'" horiz-adv-x="208" 
d="M121 408h-32l-54 250q-4 20 -1 37q5 26 26 40t48 14q25 0 44 -13t23 -37q1 -11 -1 -29z" />
    <glyph glyph-name="parenleft" unicode="(" horiz-adv-x="271" 
d="M155 755l94 -50q-36 -71 -53 -114q-51 -137 -51 -302q0 -168 56 -307q14 -35 48 -101l-90 -55q-30 56 -43 85q-81 182 -81 366q0 75 12 149q13 90 37.5 161.5t70.5 167.5z" />
    <glyph glyph-name="parenright" unicode=")" horiz-adv-x="271" 
d="M116 -175l-93 51q38 74 52 113q52 133 52 303q0 167 -57 306q-19 46 -48 102l91 55q26 -50 42 -86q81 -178 81 -366q0 -73 -11 -148q-14 -90 -38.5 -161.5t-70.5 -168.5z" />
    <glyph glyph-name="asterisk" unicode="*" horiz-adv-x="396" 
d="M151 706h99l-6 -96l80 54l51 -80l-91 -53l90 -49l-48 -81l-80 50l3 -99h-100l4 98l-79 -55l-53 80l93 55l-93 48l48 84l85 -55z" />
    <glyph glyph-name="plus" unicode="+" 
d="M398 0h-128v228h-228v127h228v227h128v-227h227v-127h-227v-228z" />
    <glyph glyph-name="comma" unicode="," horiz-adv-x="292" 
d="M103 191h185l-157 -322h-141z" />
    <glyph glyph-name="hyphen" unicode="-" horiz-adv-x="437" 
d="M45 326h346v-169h-346v169z" />
    <glyph glyph-name="period" unicode="." horiz-adv-x="292" 
d="M70 17q-32 32 -32 77t32 77t77 32q46 0 77.5 -32t31.5 -77q0 -46 -32 -77.5t-77 -31.5t-77 32z" />
    <glyph glyph-name="slash" unicode="/" horiz-adv-x="417" 
d="M293 706h116l-284 -706h-116z" />
    <glyph glyph-name="zero" unicode="0" 
d="M338 723q139 0 211 -99q72 -97 72 -265q0 -188 -79 -281q-77 -94 -216 -94q-40 0 -71 7q-71 15 -123 74q-87 99 -87 283q0 230 125 322q69 52 168 53zM333 560q-25 0 -43 -15q-55 -42 -55 -193q0 -78 18.5 -132.5t50.5 -69.5q11 -6 27 -6q33 0 55 24q47 50 47 184
q0 92 -24 150q-27 59 -76 58z" />
    <glyph glyph-name="one" unicode="1" 
d="M164 706h292v-706h-184v537h-108v169z" />
    <glyph glyph-name="two" unicode="2" 
d="M389 166h204v-166h-551q53 63 98 112l72 78q58 64 87 97q6 7 17 20.5t20 24.5t17 21q27 36 40.5 64.5t12.5 63.5q0 37 -19.5 59.5t-56.5 22.5q-40 0 -64.5 -29t-24.5 -70q0 -7 2 -25l-196 1q6 64 10 80q17 68 63.5 118.5t113.5 70.5q47 14 103 14q107 0 168 -48
q83 -67 83 -181q0 -51 -16 -93q-14 -41 -49.5 -89t-60.5 -74t-73 -72z" />
    <glyph glyph-name="three" unicode="3" 
d="M47 247h189q5 -54 31 -80q12 -12 27 -18q16 -7 39 -7q22 0 37 6q26 9 40 33t14 53q0 12 -6 36q-20 53 -84 53q-6 0 -11.5 -0.5t-12 -1.5t-10.5 -1l1 133l6 -1q6 -2 14.5 -3t14.5 -1q29 0 45.5 19t16.5 49q0 32 -18 50t-50 18q-52 0 -67 -44q-2 -6 -3 -13t-1.5 -12.5
t-0.5 -7.5l-177 1q3 47 15 77q50 138 247 138q60 0 103 -14q60 -19 93 -66.5t33 -111.5q0 -76 -45 -118q-7 -6 -30 -21q26 -7 43 -17q71 -44 71 -152q0 -80 -41.5 -140t-117.5 -84q-49 -15 -120 -15q-32 0 -48 2q-102 8 -162 68q-66 66 -75 193z" />
    <glyph glyph-name="four" unicode="4" 
d="M314 706h231v-403h84v-151h-84v-152h-181v152h-323v137zM364 522l-142 -219h142v219z" />
    <glyph glyph-name="five" unicode="5" 
d="M177 706h374v-164h-234l-13 -77q40 7 67 7q100 0 163.5 -66t62.5 -167q0 -80 -40.5 -144t-113.5 -92q-51 -19 -120 -19q-113 0 -198 44q-22 11 -51 31l27 166q31 -28 62 -45q63 -36 128 -36q51 0 83.5 25t32.5 75q0 31 -15.5 53t-33.5 31.5t-45 14.5t-35.5 5.5t-20.5 0.5
q-65 0 -143 -29z" />
    <glyph glyph-name="six" unicode="6" 
d="M295 706h239l-78 -84q-35 -36 -75 -83q-24 -29 -48 -60q25 8 54 8q59 0 100 -16q67 -26 102.5 -84.5t34.5 -131.5q0 -70 -31 -130t-89 -96q-69 -45 -178 -45q-71 0 -118 17q-82 27 -126 90.5t-44 150.5q0 67 26 135q20 56 64 121.5t76.5 104t90.5 103.5zM401 172
q30 28 30 78q0 27 -10 49q-25 52 -92 52q-47 0 -76 -29t-29 -76q0 -24 10 -47q25 -55 95 -55q44 0 72 28z" />
    <glyph glyph-name="seven" unicode="7" 
d="M72 706h598l-381 -706h-222l312 541h-307v165z" />
    <glyph glyph-name="eight" unicode="8" 
d="M476 381q26 -13 43 -24q10 -8 16 -12q65 -52 65 -144q0 -38 -13.5 -73.5t-42.5 -69t-84 -54t-129 -20.5q-160 0 -227 97q-34 48 -34 110q0 76 50 134q18 20 33 31t37 22q-11 4 -38 25q-59 48 -59 127q0 48 26 93q60 100 224 100q94 0 153 -37q79 -54 79 -148
q0 -80 -61 -131q-12 -10 -38 -26zM332 585q-37 -1 -52.5 -22.5t-15.5 -43.5q0 -31 20.5 -50t51.5 -19q14 0 24 4q46 15 46 65q0 31 -21 49t-53 17zM336 292q-37 0 -61 -22t-24 -59q0 -38 24 -59t62 -21q20 0 34 6q48 19 48 76q0 19 -6 34q-20 45 -77 45z" />
    <glyph glyph-name="nine" unicode="9" 
d="M361 0h-236q26 26 110 117q54 60 56 62q12 12 36 43q-15 -4 -60 -2q-102 5 -162 67q-63 66 -63 170q0 108 72 183q81 83 229 83q65 0 116 -17q82 -26 125.5 -88t43.5 -148q0 -48 -13 -96q-16 -55 -42.5 -100.5t-70.5 -105.5q-55 -73 -88 -110q-17 -20 -53 -58zM337 559
q-26 0 -47 -9q-60 -23 -60 -91q0 -22 9 -43q24 -57 95 -57q27 0 50 10q33 15 45 43t11 49q0 23 -6 38q-22 60 -97 60z" />
    <glyph glyph-name="colon" unicode=":" horiz-adv-x="313" 
d="M92 308q-32 32 -32 76q0 46 32 77.5t77 31.5q46 0 77.5 -32t31.5 -77q0 -46 -32 -77.5t-77 -31.5q-48 3 -77 33zM92 17q-32 36 -32 77q0 45 32 77t77 32q46 0 77.5 -32t31.5 -77q0 -46 -32 -77.5t-77 -31.5t-77 32z" />
    <glyph glyph-name="semicolon" unicode=";" horiz-adv-x="313" 
d="M122 191h186l-158 -322h-141zM126 308q-32 29 -32 76q0 46 32 77.5t77 31.5q46 0 77.5 -32t31.5 -77q-1 -46 -32.5 -77.5t-76.5 -31.5q-48 3 -77 33z" />
    <glyph glyph-name="less" unicode="&#x3c;" 
d="M667 -3l-667 292v124l667 296v-139l-490 -219l490 -216v-138z" />
    <glyph glyph-name="equal" unicode="=" 
d="M667 123h-667v128h667v-128zM667 333h-667v126h667v-126z" />
    <glyph glyph-name="greater" unicode="&#x3e;" 
d="M0 -3v138l489 216l-489 219v139l667 -296v-124z" />
    <glyph glyph-name="question" unicode="?" horiz-adv-x="521" 
d="M354 310v-62h-177v184q27 -3 54 -3q74 0 93 44q7 16 7 34q-1 28 -16 44.5t-43 16.5q-18 0 -34 -9q-27 -16 -27 -63l-178 1q0 32 9 65q18 76 89 121q60 38 147 38q53 0 94 -15q63 -23 97 -77t34 -122q0 -22 -3.5 -46t-23.5 -64.5t-56 -62.5q-27 -18 -66 -24zM190 17
q-32 36 -32 77q0 45 32.5 77t77.5 32t76.5 -32t31.5 -77q0 -46 -32 -77.5t-77 -31.5q-44 0 -77 32z" />
    <glyph glyph-name="at" unicode="@" horiz-adv-x="896" 
d="M556 463l10 40h90l-33 -159q-28 -135 -28 -162q0 -31 20 -31q11 0 27 12q22 16 44 51q57 91 57 204q0 74 -33 125q-59 90 -191 90q-78 0 -153 -38q-99 -51 -157.5 -149t-58.5 -209q0 -128 81 -203q85 -79 223 -79q141 0 266 94q34 26 60 52l46 -62q-78 -70 -135 -102
q-110 -61 -234 -61q-73 0 -145.5 23.5t-126.5 67.5q-116 97 -116 271q0 195 133.5 335t327.5 140q116 0 196 -64q101 -81 101 -228q0 -25 -3 -49q-18 -156 -109 -246q-59 -59 -126 -59q-53 0 -77 34q-7 9 -14 34q-26 -29 -44 -42q-38 -26 -81 -26q-32 0 -65 15
q-74 42 -74 154q0 92 46 173q67 114 171 114q50 0 81 -30q16 -13 24 -30zM523 350q0 19 -6 37q-16 47 -61 47q-30 0 -50 -20q-32 -26 -50.5 -76t-18.5 -95q0 -55 31 -77q17 -10 33 -10q42 0 80 53q19 27 31 67.5t11 73.5z" />
    <glyph glyph-name="A" unicode="A" horiz-adv-x="708" 
d="M247 706h213l258 -706h-201l-43 124h-240l-40 -124h-205zM320 396l-36 -121h140l-36 122q-12 40 -34 120q-19 -73 -34 -121z" />
    <glyph glyph-name="B" unicode="B" horiz-adv-x="625" 
d="M62 706h236q36 0 55 -1t52.5 -6t54 -14.5t43 -28t35.5 -45.5q20 -37 20 -87q0 -80 -57 -128q-5 -4 -11.5 -8.5t-11 -7.5t-5.5 -4q40 -15 55 -25q77 -50 77 -157q0 -56 -24 -99q-15 -27 -42 -46t-51.5 -28t-66.5 -14t-64.5 -6t-68.5 -1h-226v706zM252 564v-135h39l8 1
q8 0 15.5 1t17 3.5t18.5 8.5t15 15q11 17 11 39q0 12 -4 25q-3 9 -8.5 16t-12.5 11t-14 7t-14.5 4.5t-12.5 2l-10 1t-6 0.5h-42zM252 286v-144h59q62 2 83 30q12 17 12 43q0 19 -6 31q-10 23 -30 30.5t-53 9.5h-65z" />
    <glyph glyph-name="C" unicode="C" horiz-adv-x="604" 
d="M583 686l-1 -209q-28 25 -42 34q-53 36 -111 36q-70 0 -121 -46q-63 -57 -63 -150q0 -62 33 -114q50 -79 143 -79q79 0 164 68v-199q-88 -45 -185 -45q-143 0 -235 77q-62 52 -95 129t-33 161q0 81 30 155q45 107 138.5 163.5t213.5 56.5q84 0 134 -23q15 -6 30 -15z" />
    <glyph glyph-name="D" unicode="D" horiz-adv-x="729" 
d="M64 706h209q109 0 167 -11q132 -28 197 -131q55 -88 55 -207q0 -59 -14 -112q-4 -17 -10.5 -34.5t-21.5 -46t-34 -52.5t-50.5 -48t-68.5 -38q-68 -26 -207 -26h-222v706zM266 541v-376h54.5t52.5 8.5t48 25.5q64 55 64 161q0 105 -62 149q-22 15 -51.5 22.5t-49.5 8.5
t-56 1z" />
    <glyph glyph-name="E" unicode="E" horiz-adv-x="521" 
d="M63 706h414v-165h-224v-102h196v-166h-196v-109h233v-164h-423v706z" />
    <glyph glyph-name="F" unicode="F" horiz-adv-x="479" 
d="M64 706h407v-161h-218v-101h191v-162h-191v-282h-189v706z" />
    <glyph glyph-name="G" unicode="G" horiz-adv-x="792" 
d="M731 555l-180 -85q-9 19 -24 36q-43 52 -116 52q-40 0 -74 -17q-93 -47 -93 -189q0 -65 25 -120.5t79 -78.5q30 -13 71 -13q27 0 50 6q58 17 81 64q4 8 7 18t5 18.5t2 9.5h-153v158l354 -1q0 -45 -3 -90q-13 -211 -158 -294q-87 -47 -203 -47q-123 0 -209 54
q-34 23 -58 48q-96 101 -96 264q0 87 25 151q19 53 50.5 93.5t67 63.5t62 35t53.5 19q52 14 120 14q170 0 261 -95q26 -26 54 -74z" />
    <glyph glyph-name="H" unicode="H" horiz-adv-x="750" 
d="M62 706h201v-264h226v264h200v-706h-200v278h-226v-278h-201v706z" />
    <glyph glyph-name="I" unicode="I" horiz-adv-x="333" 
d="M65 706h203v-706h-203v706z" />
    <glyph glyph-name="J" unicode="J" horiz-adv-x="479" 
d="M219 706h200v-505q0 -26 -4 -54q-12 -66 -56 -108q-56 -56 -156 -56q-91 0 -152 41q-25 17 -64 60l107 128q4 -27 22 -46.5t45 -19.5q19 0 32 11q26 19 26 76v473z" />
    <glyph glyph-name="K" unicode="K" horiz-adv-x="729" 
d="M64 706h201v-282l205 282h250l-273 -345l290 -361h-258l-214 296v-296h-201v706z" />
    <glyph glyph-name="L" unicode="L" horiz-adv-x="500" 
d="M63 706h201v-540h221v-166h-422v706z" />
    <glyph glyph-name="M" unicode="M" horiz-adv-x="938" 
d="M129 706h222l74 -231q4 -13 12.5 -39.5t12.5 -39.5q16 -54 22 -70q1 3 8.5 27t11.5 36q9 29 27 85l76 232h217l112 -706h-203l-33 251q-3 28 -9.5 80.5t-9.5 76.5q-12 -38 -38 -116l-102 -292h-122l-100 292q-4 14 -17.5 54t-19.5 62q-4 -29 -10.5 -84t-9.5 -81l-33 -243
h-203z" />
    <glyph glyph-name="N" unicode="N" horiz-adv-x="833" 
d="M62 706h199l256 -337q31 -42 60 -84q0 34 -2 100l-4 321h199v-706h-200l-248 331q-18 25 -41 58q-9 13 -25 37q3 -105 3 -108l4 -318h-201v706z" />
    <glyph glyph-name="O" unicode="O" horiz-adv-x="854" 
d="M434 724q146 0 240 -72q22 -17 43 -39.5t45 -58t38.5 -86t14.5 -107.5q0 -149 -92 -254q-111 -125 -307 -125q-182 0 -282 109q-36 39 -66.5 105.5t-30.5 155.5q0 162 105 266q106 106 292 106zM432 557q-46 0 -84 -18q-105 -49 -105 -188q0 -48 13 -85q19 -56 64 -87.5
t105 -31.5q85 0 133 54q51 57 51 156q0 79 -34.5 126t-77.5 63q-30 11 -65 11z" />
    <glyph glyph-name="P" unicode="P" horiz-adv-x="604" 
d="M63 706h267q40 0 59 -2q133 -10 183 -94q34 -57 34 -140q0 -92 -45 -152q-32 -45 -82 -64q-44 -17 -136 -19h-91v-235h-189v706zM252 548v-149h53q104 0 104 75q0 26 -15 44q-24 30 -84 30h-58z" />
    <glyph glyph-name="Q" unicode="Q" horiz-adv-x="854" 
d="M732 118l118 -116l-169 -41l-61 66l-24 -12q-81 -33 -175 -33q-159 0 -256 80q-63 52 -95.5 129t-32.5 162q0 160 104 264q107 107 296 107q146 0 238 -73q67 -52 103.5 -129t36.5 -163q0 -101 -47 -188q-14 -24 -36 -53zM493 160l-36 36l-83 84l170 40l49 -55
q16 46 16 87q0 51 -14 88q-6 18 -16 35t-28.5 37t-50 32.5t-70.5 12.5q-44 0 -80 -16q-43 -19 -75 -65t-32 -125q0 -123 80 -176q42 -28 100 -28q36 0 70 13z" />
    <glyph glyph-name="R" unicode="R" horiz-adv-x="646" 
d="M62 706h260q99 0 152 -26q31 -18 44 -30q59 -54 59 -159q0 -93 -52 -154q-29 -29 -40 -36q-14 -9 -36 -18l208 -283h-237l-169 242v-242h-189v706zM251 544v-151h34h18.5t23 4t27 11t18 23.5t8.5 39.5q0 73 -84 73h-45z" />
    <glyph glyph-name="S" unicode="S" horiz-adv-x="542" 
d="M502 652l-68 -141q-24 18 -36 26l-7 4q-7 4 -13.5 7t-17.5 8t-21 8t-22.5 5.5t-23.5 2.5q-37 0 -55.5 -18t-18.5 -40q0 -26 24 -43q16 -10 85 -29q81 -14 134 -56q65 -52 65 -158q0 -98 -60 -164q-73 -82 -204 -82q-61 0 -117.5 17.5t-80.5 32t-57 38.5l69 147
q4 -3 12.5 -9.5t12.5 -9.5q84 -58 141 -58q37 0 62.5 20t25.5 55q0 27 -15 43q-6 7 -13 12.5t-18 10t-17 6.5t-20.5 5.5t-17.5 4.5q-73 18 -104 32q-103 49 -103 168q0 59 20 101q57 126 230 126q95 0 175 -40q12 -6 54 -32z" />
    <glyph glyph-name="T" unicode="T" horiz-adv-x="479" 
d="M-8 706h494v-164h-147v-542h-199v542h-148v164z" />
    <glyph glyph-name="U" unicode="U" horiz-adv-x="750" 
d="M263 706v-417q1 -5 1 -15t1 -15q7 -112 111 -112q58 0 89 41q22 30 24 101v416h199v-449q0 -1 -0.5 -12.5t-0.5 -16.5t-1 -17.5t-3 -21t-5.5 -22t-8 -24.5t-11 -24.5t-15.5 -25.5q-44 -64 -115 -87t-165 -23q-150 0 -227 66q-39 37 -57 82q-14 39 -16 128v448h200z" />
    <glyph glyph-name="V" unicode="V" horiz-adv-x="708" 
d="M-3 706h206l158 -400l146 400h205l-288 -706h-136z" />
    <glyph glyph-name="W" unicode="W" horiz-adv-x="1083" 
d="M1096 706l-239 -706h-185l-129 403l-124 -403h-187l-243 706h202l143 -429l134 429h156l135 -429l137 429h200z" />
    <glyph glyph-name="X" unicode="X" horiz-adv-x="729" 
d="M38 706h232l96 -164l95 164h232l-219 -322l265 -384h-234l-140 231l-141 -231h-232l264 384z" />
    <glyph glyph-name="Y" unicode="Y" horiz-adv-x="688" 
d="M-9 706h240l111 -176l109 176h242l-250 -364v-342h-200v341z" />
    <glyph glyph-name="Z" unicode="Z" 
d="M63 706h613l-354 -537h331v-169h-662l356 543h-284v163z" />
    <glyph glyph-name="bracketleft" unicode="[" horiz-adv-x="333" 
d="M343 754v-106h-134v-719h134v-106h-276v931h276z" />
    <glyph glyph-name="backslash" unicode="\" horiz-adv-x="354" 
d="M230 -18l-228 724h128l228 -724h-128z" />
    <glyph glyph-name="bracketright" unicode="]" horiz-adv-x="333" 
d="M-9 754h275v-931h-275v106h134v719h-134v106z" />
    <glyph glyph-name="asciicircum" unicode="^" horiz-adv-x="729" 
d="M615 311h-138l-110 231l-116 -231h-137l203 395h104z" />
    <glyph glyph-name="underscore" unicode="_" horiz-adv-x="500" 
d="M510 -240h-520v127h520v-127z" />
    <glyph glyph-name="grave" unicode="`" horiz-adv-x="271" 
d="M-151 729h203l92 -192h-144z" />
    <glyph glyph-name="a" unicode="a" horiz-adv-x="646" 
d="M409 436l-3 47h187v-483h-187l3 43q-23 -18 -35 -26t-46.5 -20t-72.5 -12q-78 0 -136 46q-88 68 -88 206q0 96 44 164q63 96 185 96q69 0 116 -33q10 -6 33 -28zM324 343q-25 0 -41 -6q-63 -25 -63 -99q0 -26 8 -46q24 -55 94 -55q26 0 44 8q21 9 39.5 33.5t18.5 64.5
q0 20 -7 40q-21 60 -93 60z" />
    <glyph glyph-name="b" unicode="b" horiz-adv-x="646" 
d="M54 748h170l1 -312q18 16 28 23q54 39 132 38q108 0 168 -72t59 -181q0 -93 -44 -160q-67 -99 -188 -99q-40 0 -73.5 12t-48 23.5t-32.5 29.5l3 -50h-175v748zM324 341q-46 -1 -75.5 -27.5t-29.5 -72.5q0 -29 13 -53q27 -49 90 -49q31 0 53 12t31.5 31t13.5 34.5t4 28.5
q0 28 -12 51q-24 45 -88 45z" />
    <glyph glyph-name="c" unicode="c" horiz-adv-x="437" 
d="M420 470l-1 -166q-46 38 -95 38q-45 0 -73 -29t-27 -73q0 -44 27 -71.5t72 -27.5q49 0 96 37v-162q-62 -31 -133 -31q-98 0 -165 55q-87 70 -87 196q0 142 107 216q50 31 90 39q22 6 60 6q55 0 129 -27z" />
    <glyph glyph-name="d" unicode="d" horiz-adv-x="646" 
d="M409 748h182v-748h-183l1 42q-67 -57 -149 -57q-58 0 -101 21q-49 24 -88.5 83.5t-39.5 154.5q0 122 73 194q36 34 80 48q33 11 82 11q36 0 65.5 -7.5t43.5 -15t34 -21.5v295zM321 141q28 1 43 9q28 12 43 37t15 56q0 45 -28 73t-73 28q-46 0 -73 -28t-27 -73
q0 -47 27 -74.5t73 -27.5z" />
    <glyph glyph-name="e" unicode="e" horiz-adv-x="604" 
d="M583 199l-374 -1q16 -91 99 -91q53 0 76 43h193q-7 -20 -17 -38q-28 -52 -89.5 -90t-162.5 -38q-71 0 -123 18q-26 9 -49.5 24.5t-48.5 42.5t-39.5 71t-14.5 99q0 105 56 170q80 90 221 90q121 0 194 -69q44 -42 63 -99q16 -50 16 -132zM213 304h187q-6 18 -12 27
q-26 41 -81 41t-82 -45q-4 -7 -12 -23z" />
    <glyph glyph-name="f" unicode="f" horiz-adv-x="354" 
d="M366 741v-145q-30 16 -52 16q-55 -1 -55 -73v-56h100v-122h-101v-361h-182v361h-79v122h79v65q0 5 0.5 13.5t1 15.5t1.5 13q8 78 53 123q25 25 64 39q27 9 68 9q49 0 102 -20z" />
    <glyph glyph-name="g" unicode="g" horiz-adv-x="646" 
d="M409 444l-3 39h187v-422q0 -30 -1 -44q-3 -91 -52 -149q-41 -48 -97 -63t-135 -15q-143 0 -205 54q-47 41 -59 116h188q18 -42 75 -42q28 0 49 8q55 21 55 100q0 18 -1 27q-21 -15 -34.5 -23t-46 -17.5t-70.5 -9.5q-39 0 -72 10q-27 8 -51.5 23t-49 41t-39.5 70t-15 100
q0 63 18 109q26 68 83 104.5t130 36.5q37 0 69 -10.5t44 -18.5t33 -24zM324 353q-24 -1 -38 -7q-65 -25 -65 -96q0 -27 12 -51q26 -55 88 -52q25 0 44 8q58 28 58 98q0 21 -7 42q-11 28 -36 43t-56 15z" />
    <glyph glyph-name="h" unicode="h" horiz-adv-x="625" 
d="M56 748h183v-324q74 74 164 73q97 0 136 -63q18 -29 23 -68.5t5 -120.5v-245h-184v251q0 22 -4 38q-11 53 -64 53q-25 0 -43 -14q-8 -6 -14 -14t-9 -15.5t-5 -16.5t-2.5 -14.5t-1 -12t-0.5 -7.5v-248h-184v748z" />
    <glyph glyph-name="i" unicode="i" horiz-adv-x="292" 
d="M238 483v-483h-183v483h183zM75 558q-28 28 -28 70q0 40 28.5 68.5t69.5 28.5t69.5 -28.5t28.5 -69.5q0 -40 -29 -69t-69 -29t-70 29z" />
    <glyph glyph-name="j" unicode="j" horiz-adv-x="292" 
d="M54 484h184v-688h-184v688zM77 558q-28 28 -28 70q0 40 28.5 68.5t69.5 28.5q40 0 68.5 -28.5t28.5 -69.5q0 -40 -29 -69t-69 -29q-39 0 -69 29z" />
    <glyph glyph-name="k" unicode="k" horiz-adv-x="625" 
d="M236 291l153 192h222l-216 -239l235 -244h-227l-167 182v-182h-182v748h182v-457z" />
    <glyph glyph-name="l" unicode="l" horiz-adv-x="292" 
d="M54 747h183v-747h-183v747z" />
    <glyph glyph-name="m" unicode="m" horiz-adv-x="938" 
d="M883 316v-316h-182v252q-2 65 -32 85q-15 11 -36 11q-25 -1 -40 -14q-32 -25 -32 -94v-240h-183v248q0 100 -68 100q-24 0 -40 -12q-32 -22 -34 -96v-240h-182v484l184 -1l-2 -61l5 6q5 6 12 13.5t13 12.5q51 43 129 43q82 0 126 -45q16 -16 27 -42q17 21 23 28
q58 60 147 59q16 0 32.5 -2.5t43.5 -11.5t48.5 -32t31.5 -57q7 -23 9 -78z" />
    <glyph glyph-name="n" unicode="n" horiz-adv-x="625" 
d="M569 317v-317h-185v245q0 66 -31 88q-17 10 -40 10q-24 0 -40 -11q-36 -24 -36 -87v-245h-184v483h187l-3 -62q22 22 36 34t52 27t81 15q70 0 106 -32t48 -73q8 -26 9 -75z" />
    <glyph glyph-name="o" unicode="o" horiz-adv-x="646" 
d="M326 499q68 0 119 -17q81 -28 125.5 -93.5t44.5 -152.5q0 -140 -115 -210q-70 -42 -181 -42q-115 0 -186 49q-101 72 -101 202q0 63 24 115q35 75 108 111.5t162 37.5zM327 346q-48 0 -76.5 -29t-28.5 -77q0 -47 28 -76t75 -29q17 0 40 7q62 25 62 100q0 23 -7 41
q-8 23 -30.5 43t-62.5 20z" />
    <glyph glyph-name="p" unicode="p" horiz-adv-x="646" 
d="M229 39v-245h-173v689h175l-1 -47q63 61 153 61q99 0 160 -64q70 -73 70 -193q0 -109 -64 -182t-172 -73q-82 0 -148 54zM324 340q-59 -1 -80.5 -32t-20.5 -67q0 -40 21.5 -64t41.5 -29.5t39 -5.5q20 0 38 6q62 24 62 94q0 31 -15 56t-43 35q-17 7 -43 7z" />
    <glyph glyph-name="q" unicode="q" horiz-adv-x="646" 
d="M410 442l-2 41h181v-689h-179l-1 247q-20 -17 -32.5 -26t-44 -19.5t-68.5 -10.5q-74 0 -130 41q-42 31 -66.5 79.5t-29 78t-4.5 56.5q1 68 29 128.5t82 94.5q59 35 125 34q36 0 66.5 -10.5t42.5 -19.5t31 -25zM321 343q-19 0 -35 -6q-31 -12 -47.5 -38t-16.5 -60
q0 -44 27.5 -72t72.5 -28q25 0 47 11q51 26 51 92q0 24 -10 47q-25 54 -89 54z" />
    <glyph glyph-name="r" unicode="r" horiz-adv-x="437" 
d="M439 481v-169q-56 17 -91 17q-45 0 -73 -19q-15 -12 -22 -26q-13 -23 -14 -67v-217h-183v483h177l-2 -60q12 10 19 15q67 51 132 51q17 0 57 -8z" />
    <glyph glyph-name="s" unicode="s" horiz-adv-x="458" 
d="M413 464l-38 -137q-66 30 -110 30q-13 0 -23 -4q-18 -6 -18 -22q0 -13 14.5 -20t43.5 -13q89 -22 116 -45q23 -19 29 -44q8 -19 8 -48q0 -72 -51 -120q-39 -37 -109 -50q-33 -6 -68 -6q-74 0 -144 24q-18 6 -46 20l41 147q16 -10 24 -14q70 -35 125 -35q19 0 30 5
q19 8 19 26q0 13 -11 20q-9 5 -41 9.5t-56 12.5q-101 35 -101 131q0 77 57 124q52 42 138 42q70 0 171 -33z" />
    <glyph glyph-name="t" unicode="t" horiz-adv-x="354" 
d="M77 612h182v-129h98v-122h-98v-361h-182v361h-68v122h68v129z" />
    <glyph glyph-name="u" unicode="u" horiz-adv-x="625" 
d="M56 483h182v-264q2 -49 19 -68q19 -20 55 -20q27 0 45 12q31 22 29 88v252h183v-281q0 -24 -4 -52q-13 -70 -59 -108q-66 -57 -201 -57q-126 0 -191 59q-29 26 -42 58q-16 37 -16 120v261z" />
    <glyph glyph-name="v" unicode="v" horiz-adv-x="583" 
d="M-8 483h193l110 -247l104 247h192l-227 -483h-141z" />
    <glyph glyph-name="w" unicode="w" horiz-adv-x="854" 
d="M-6 483h194l95 -238l88 238h114l83 -233l98 233h191l-220 -483h-125l-89 247l-91 -247h-126z" />
    <glyph glyph-name="x" unicode="x" 
d="M10 483h245l76 -97l80 97h239l-203 -226l231 -257h-247l-99 125l-99 -125h-242l226 256z" />
    <glyph glyph-name="y" unicode="y" horiz-adv-x="625" 
d="M-5 483h202l119 -238l122 238h196l-368 -685h-201l153 281z" />
    <glyph glyph-name="z" unicode="z" horiz-adv-x="500" 
d="M46 483h454l-228 -340h212v-143h-493l226 337h-171v146z" />
    <glyph glyph-name="braceleft" unicode="{" horiz-adv-x="354" 
d="M112 414v177q3 106 77 139q8 4 16 6.5t14.5 4.5t18 3t17 1.5t21 1t22 1t27 0.5h29.5v-8q-16 -3 -35 -9q-52 -15 -67 -69q-5 -18 -7 -90v-95v-32.5t-0.5 -29.5t-1 -24t-1.5 -23.5t-2.5 -18.5t-4 -19t-6.5 -15.5t-9 -16.5q-23 -33 -80 -49q49 -13 73 -41q16 -18 23.5 -44.5
t8.5 -49t1 -82.5v-107v-16.5v-18.5t0.5 -16t2 -18t3.5 -15.5t5.5 -17.5t8.5 -15t9.5 -13t11.5 -10.5t10.5 -7.5t13.5 -6.5t12.5 -4.5t15.5 -4.5t15 -4.5v-7h-46q-34 1 -52.5 2.5t-46.5 9.5t-48 23q-7 6 -13.5 13t-11 13t-8.5 16t-6 15.5t-4 17.5t-3 16.5t-1.5 18.5t-1 17.5
t-0.5 18.5v17v126v23v24.5t-1 21.5t-3.5 23.5t-7.5 20t-12 21.5q-11 17 -29 27q-12 8 -25 11v7q19 5 32 13q23 15 33.5 45t11.5 47t1 56z" />
    <glyph glyph-name="bar" unicode="|" horiz-adv-x="229" 
d="M178 -250h-127v998h127v-998z" />
    <glyph glyph-name="braceright" unicode="}" horiz-adv-x="354" 
d="M242 83v-175q-4 -109 -80 -142q-19 -8 -44 -11.5t-43.5 -4t-74.5 -0.5v7q65 14 88 47q4 5 6.5 9.5t5 11t3.5 10t2.5 11.5t2 11.5t0.5 14.5t0.5 15t0.5 18.5v20.5v95q0 109 8 139q6 22 19 40q24 34 78 48q-48 13 -72 41q-17 19 -24.5 45t-8.5 49t-1 82v108v15v16.5
t-0.5 15t-1.5 16.5t-2.5 15t-4 16t-6 13.5t-8.5 14.5q-10 14 -26 23.5t-25 12t-34 9.5v8q7 0 22.5 -0.5t23.5 -0.5q101 0 147 -34q7 -6 13.5 -13t11 -13.5t8.5 -16.5t6 -15.5t4 -17.5t3 -16.5t1.5 -18.5t1 -17t0.5 -18v-17v-127v-22.5v-24.5t1 -21.5t3.5 -24t7.5 -20
t12 -21.5q10 -15 29 -27q10 -6 25 -10v-8q-18 -3 -32 -13q-22 -14 -33 -44t-12 -48.5t-1 -55.5z" />
    <glyph glyph-name="asciitilde" unicode="~" horiz-adv-x="729" 
d="M366 230l-31 15q-50 23 -73 23q-22 -2 -37 -8q-10 -5 -21.5 -15t-18 -17t-27.5 -31l-55 104q38 52 74 72q38 22 82 22q41 0 103 -31l36 -16q44 -22 76 -22q47 0 100 61l52 -105q-20 -22 -45 -41q-59 -42 -111 -42q-40 0 -104 31z" />
    <glyph glyph-name="exclamdown" unicode="&#xa1;" horiz-adv-x="313" 
d="M240 0h-188v462h188v-462zM224 689q32 -32 32 -77t-32 -76.5t-77 -31.5q-46 0 -77.5 32t-31.5 77t32 76.5t77 31.5t77 -32z" />
    <glyph glyph-name="sterling" unicode="&#xa3;" horiz-adv-x="688" 
d="M658 454l-188 1q0 31 -3 43q-12 67 -84 67q-68 0 -85 -58q-7 -16 -7 -43q0 -35 24 -96h169v-77h-143q8 -26 8 -44q0 -30 -18 -85q27 -5 81 -17q52 -10 64 -10q35 0 48 29q1 3 5 18h152q-27 -99 -61 -141q-45 -57 -136 -57q-42 0 -117 15l-117 30q-13 2 -22 2
q-26 0 -37 -31h-157q0 23 7 46q23 85 88 114q26 10 61 12q8 27 8 43q0 29 -21 76h-150v77l108 1q-31 73 -31 131q0 81 48 136q22 28 56 48q65 39 166 39q69 0 118 -17q118 -38 153 -161q8 -27 13 -91z" />
    <glyph glyph-name="currency" unicode="&#xa4;" 
d="M579 187l81 -82l-96 -95l-81 82q-73 -42 -150 -42q-82 0 -151 44l-81 -82l-95 95l82 82q-14 21 -18 29q-25 51 -25 120q0 84 42 152l-80 80l95 95l80 -80q9 6 27 16q57 27 125 27q80 0 150 -43l81 81l96 -96l-81 -80l15 -27q27 -56 27 -125q0 -78 -43 -151zM497 340
q0 38 -15 70q-19 43 -60 69t-89 26q-26 0 -54 -10q-51 -18 -80 -59.5t-29 -96.5q0 -37 12 -65q19 -46 61.5 -73t91.5 -27q35 0 70 16q43 21 67.5 61t24.5 89z" />
    <glyph glyph-name="brokenbar" unicode="&#xa6;" horiz-adv-x="229" 
d="M51 190h127v-381h-127v381zM51 308v381h127v-381h-127z" />
    <glyph glyph-name="section" unicode="&#xa7;" horiz-adv-x="583" 
d="M544 504h-183l-1 5v8t-1.5 9l-2.5 10t-4 10t-6.5 10.5t-9 9t-12.5 7.5q-14 7 -32 7q-21 -2 -34 -9q-26 -15 -26 -47q0 -19 10 -32q6 -9 15 -15t22 -9t22 -4.5t25 -3.5t20 -2q51 -7 82 -18q60 -22 93 -69.5t33 -111.5q0 -75 -45 -130q-10 -12 -34 -32l11 -11
q11 -11 16 -19q31 -41 31 -98t-38 -104q-63 -76 -203 -75q-136 0 -201 72q-34 40 -44 85q-4 16 -6 53h184q5 -26 8 -32q17 -39 62 -39q61 2 61 56q0 18 -10 31q-6 7 -13 12.5t-19.5 8.5t-17 4.5t-21.5 3.5l-17 2q-50 6 -73 12q-68 17 -106 55q-26 26 -37 57q-12 32 -12 74
q0 104 85 163q-58 55 -58 126q0 98 80 149q59 38 163 38q106 0 164 -44q56 -44 73 -110q6 -30 7 -63zM296 317q-56 0 -73 -34q-8 -13 -8 -31q0 -11 5 -24q15 -38 72 -38q51 0 72 31q9 16 9 33q0 18 -8 30q-18 33 -69 33z" />
    <glyph glyph-name="dieresis" unicode="&#xa8;" horiz-adv-x="271" 
d="M117 572q-26 26 -26 63t26.5 63t63.5 26t63 -26.5t26 -62.5q-1 -37 -27 -63t-63 -26t-63 26zM-140 572q-26 25 -26 63q0 37 26 63t63 26t63 -26.5t26 -62.5q0 -37 -26.5 -63t-62.5 -26q-37 0 -63 26z" />
    <glyph glyph-name="copyright" unicode="&#xa9;" horiz-adv-x="833" 
d="M773 351q0 -129 -85 -229q-43 -51 -102 -81.5t-96.5 -37t-72.5 -6.5q-122 0 -218 73q-138 108 -138 284q0 130 81 228q109 127 276 127q85 0 160 -37t126 -106q71 -95 69 -215zM741 352q0 109 -63 195q-15 20 -34.5 39t-51.5 41.5t-77.5 36t-96.5 13.5q-108 0 -192 -62
q-20 -15 -39.5 -34.5t-42.5 -52t-37 -78t-14 -97.5q0 -65 24 -123q37 -91 119.5 -146t181.5 -55q54 0 109 19q97 34 155 117.5t59 186.5zM620 519l-87 -84q-50 50 -110 49q-34 0 -60 -12q-32 -16 -48.5 -48t-16.5 -70q1 -59 35.5 -94t92.5 -35q62 1 107 46l87 -81
q-78 -84 -195 -84q-61 0 -109 20q-68 28 -104.5 90t-36.5 138q0 61 21 108q10 23 25.5 44t42.5 45t68.5 38.5t92.5 14.5q115 0 195 -85z" />
    <glyph glyph-name="guillemotleft" unicode="&#xab;" horiz-adv-x="542" 
d="M192 4l-167 235l169 237l101 -64l-123 -172l122 -170zM409 4l-167 235l169 237l101 -64l-123 -172l122 -170z" />
    <glyph glyph-name="logicalnot" unicode="&#xac;" 
d="M539 227h-539v127h667v-354h-128v227z" />
    <glyph glyph-name="registered" unicode="&#xae;" horiz-adv-x="833" 
d="M612 128l-126 1q-6 14 -11 30.5t-6.5 27t-5 31.5t-4.5 30q-9 49 -21 59q-13 11 -59 13h-19v-192h-110v458h164q27 0 40 -1q52 -2 78.5 -13.5t44.5 -34.5q25 -32 25 -74q0 -13 -3 -25.5t-6.5 -21t-10.5 -17t-11.5 -13.5t-13.5 -11t-12.5 -8t-12.5 -7l-9 -4q10 -6 15 -10
q28 -21 34 -71q0 -1 3.5 -20l7 -38t11.5 -44.5t18 -44.5zM360 407h49q38 0 53 3.5t24 20.5q7 11 7 26q0 12 -6 23q-13 22 -58 22h-69v-95zM773 351q0 -129 -85 -229q-43 -51 -102 -81.5t-96.5 -37t-72.5 -6.5q-122 0 -218 73q-138 108 -138 284q0 130 81 228
q109 127 276 127q85 0 160 -37t126 -106q71 -95 69 -215zM741 352q0 109 -63 195q-15 20 -34.5 39t-51.5 41.5t-77.5 36t-96.5 13.5q-108 0 -192 -62q-20 -15 -39.5 -34.5t-42.5 -52t-37 -78t-14 -97.5q0 -65 24 -123q37 -91 119.5 -146t181.5 -55q54 0 109 19
q97 34 155 117.5t59 186.5z" />
    <glyph glyph-name="degree" unicode="&#xb0;" horiz-adv-x="354" 
d="M177 745q39 0 71 -15q47 -20 74 -63t27 -94q0 -41 -15 -71q-20 -46 -63 -74t-94 -28q-63 0 -112 42q-60 51 -60 131q0 72 50 122t122 50zM177 630q-23 0 -39 -16t-16 -39t16.5 -39.5t39.5 -16.5t39 16.5t16 39.5t-16.5 39t-39.5 16z" />
    <glyph glyph-name="plusminus" unicode="&#xb1;" 
d="M398 162h-128v209h-228v127h228v208h128v-208h227v-127h-227v-209zM625 0h-583v127h583v-127z" />
    <glyph glyph-name="acute" unicode="&#xb4;" horiz-adv-x="271" 
d="M259 729l-151 -192h-144l93 192h202z" />
    <glyph glyph-name="mu" unicode="&#xb5;" horiz-adv-x="562" 
d="M501 144l35 2q15 -42 15 -73q0 -53 -34 -73q-17 -11 -38 -11q-15 0 -33 7q-42 16 -55 68q-55 -79 -149 -79q-65 0 -107 49q-6 -82 25 -146q10 -20 24.5 -41.5t21 -34.5t6.5 -27q0 -10 -4 -20q-15 -27 -46 -27q-28 0 -50 22q-42 48 -42 193q0 102 12 174q-23 115 -23 248
q0 56 25 80q15 15 35 15q34 0 51 -46q3 -21 3 -32q0 -48 -31 -271q32 -75 90 -75q29 0 55 23q34 29 48 82t14 148q0 2 -0.5 31.5t0 45t3.5 38t10 33.5q14 23 43 23q19 0 36 -13q26 -21 26 -91q0 -40 -5 -88q-10 -103 -45 -170q11 -48 46 -48q39 0 39 61q0 15 -1 23z" />
    <glyph glyph-name="paragraph" unicode="&#xb6;" 
d="M558 706v-78h-36v-795h-84v795h-117v-795h-85v459q-41 11 -66 26q-88 57 -88 173q0 47 14 84.5t36 60.5t42.5 36.5t41.5 20.5q37 13 92 13h250z" />
    <glyph glyph-name="periodcentered" unicode="&#xb7;" horiz-adv-x="187" 
d="M91 201q-36 1 -61.5 26.5t-24.5 61.5q0 18 7 34q8 20 28.5 38t55.5 18q38 0 62.5 -25.5t24.5 -63.5q0 -21 -9 -39q-8 -17 -29.5 -34t-53.5 -16z" />
    <glyph glyph-name="cedilla" unicode="&#xb8;" horiz-adv-x="271" 
d="M124 -43l94 -75l-147 -116l-79 66z" />
    <glyph glyph-name="guillemotright" unicode="&#xbb;" horiz-adv-x="542" 
d="M351 476l168 -235l-169 -237l-101 64l123 172l-122 170zM135 476l167 -235l-169 -237l-101 64l123 172l-122 170z" />
    <glyph glyph-name="questiondown" unicode="&#xbf;" horiz-adv-x="521" 
d="M166 397v61h177v-184q-36 4 -53 4q-75 -1 -93 -45q-7 -14 -7 -33q0 -28 15.5 -45t42.5 -17q19 0 34 9q28 17 28 63h178q-4 -49 -9 -65q-20 -79 -90 -122q-61 -38 -146 -38q-54 0 -95 15q-63 23 -97 77t-33 123q0 14 2 30.5t9 44.5t25.5 54t45.5 43q23 14 66 25zM331 689
q31 -31 31 -77q0 -45 -32 -76.5t-77 -31.5q-46 0 -77.5 32t-30.5 77q0 45 32 76.5t77 31.5q44 0 77 -32z" />
    <glyph glyph-name="Agrave" unicode="&#xc0;" horiz-adv-x="708" 
d="M247 706h213l258 -706h-201l-43 124h-240l-40 -124h-205zM320 396l-36 -121h140l-36 122q-12 40 -34 120q-19 -73 -34 -121zM207 898h162l65 -129h-127z" />
    <glyph glyph-name="Aacute" unicode="&#xc1;" horiz-adv-x="708" 
d="M247 706h213l258 -706h-201l-43 124h-240l-40 -124h-205zM320 396l-36 -121h140l-36 122q-12 40 -34 120q-19 -73 -34 -121zM513 898l-101 -129h-126l65 129h162z" />
    <glyph glyph-name="Acircumflex" unicode="&#xc2;" horiz-adv-x="708" 
d="M247 706h213l258 -706h-201l-43 124h-240l-40 -124h-205zM320 396l-36 -121h140l-36 122q-12 40 -34 120q-19 -73 -34 -121zM354 903l181 -85l-94 -49l-87 42l-88 -42l-92 48z" />
    <glyph glyph-name="Atilde" unicode="&#xc3;" horiz-adv-x="708" 
d="M247 706h213l258 -706h-201l-43 124h-240l-40 -124h-205zM320 396l-36 -121h140l-36 122q-12 40 -34 120q-19 -73 -34 -121zM258 776h-91q13 64 36 92q28 33 67 33q19 0 97 -21q28 -6 39 -6q28 1 42 25h92q-16 -72 -42 -99q-16 -16 -33 -22q-16 -6 -35 -6q-28 0 -85 17
q-38 11 -51 11q-23 0 -36 -24z" />
    <glyph glyph-name="Adieresis" unicode="&#xc4;" horiz-adv-x="708" 
d="M161 773q-26 26 -26 62q1 37 26.5 62.5t61.5 25.5q37 0 62.5 -26t25.5 -63q0 -36 -26 -61.5t-62 -25.5t-62 26zM423 773q-25 25 -25 62t25.5 62.5t62.5 25.5q36 0 61.5 -26t25.5 -63q0 -36 -26 -61.5t-62 -25.5t-62 26zM247 706h213l258 -706h-201l-43 124h-240l-40 -124
h-205zM320 396l-36 -121h140l-36 122q-12 40 -34 120q-19 -73 -34 -121z" />
    <glyph glyph-name="Aring" unicode="&#xc5;" horiz-adv-x="708" 
d="M274 769q-34 31 -34 82q0 48 34.5 82t82.5 34t82 -34.5t34 -82.5t-34.5 -82t-82.5 -34t-82 35zM326 819q13 -13 31 -13q18 1 31 14t13 31q-1 19 -14 31.5t-31 12.5t-31 -13.5t-13 -31.5q0 -19 14 -31zM247 706h213l258 -706h-201l-43 124h-240l-40 -124h-205zM320 396
l-36 -121h140l-36 122q-12 40 -34 120q-19 -73 -34 -121z" />
    <glyph glyph-name="AE" unicode="&#xc6;" horiz-adv-x="958" 
d="M711 706l60 -164h-242l37 -101h242l59 -165h-243l41 -112h242l59 -164h-444l-43 123h-240l-41 -123h-203l261 706h455zM357 488l-68 -216h138z" />
    <glyph glyph-name="Ccedilla" unicode="&#xc7;" horiz-adv-x="604" 
d="M583 686l-1 -209q-28 25 -42 34q-53 36 -111 36q-70 0 -121 -46q-63 -57 -63 -150q0 -62 33 -114q50 -79 143 -79q79 0 164 68v-199q-88 -45 -185 -45q-143 0 -235 77q-62 52 -95 129t-33 161q0 81 30 155q45 107 138.5 163.5t213.5 56.5q84 0 134 -23q15 -6 30 -15z
M374 -43l94 -75l-147 -116l-79 66z" />
    <glyph glyph-name="Egrave" unicode="&#xc8;" horiz-adv-x="521" 
d="M63 706h414v-165h-224v-102h196v-166h-196v-109h233v-164h-423v706zM113 898h162l65 -129h-127z" />
    <glyph glyph-name="Eacute" unicode="&#xc9;" horiz-adv-x="521" 
d="M63 706h414v-165h-224v-102h196v-166h-196v-109h233v-164h-423v706zM419 898l-100 -129h-127l65 129h162z" />
    <glyph glyph-name="Ecircumflex" unicode="&#xca;" horiz-adv-x="521" 
d="M63 706h414v-165h-224v-102h196v-166h-196v-109h233v-164h-423v706zM260 903l181 -85l-94 -49l-86 42l-89 -42l-91 48z" />
    <glyph glyph-name="Edieresis" unicode="&#xcb;" horiz-adv-x="521" 
d="M63 706h414v-165h-224v-102h196v-166h-196v-109h233v-164h-423v706zM71 773q-25 27 -25 62q0 37 26 62.5t62 25.5t61.5 -26t25.5 -63t-25.5 -62t-62.5 -25q-36 0 -62 26zM319 773q-26 26 -26 62q1 37 26.5 62.5t61.5 25.5q37 0 62.5 -26t25.5 -63q0 -36 -26 -61.5
t-62 -25.5t-62 26z" />
    <glyph glyph-name="Igrave" unicode="&#xcc;" horiz-adv-x="333" 
d="M65 706h203v-706h-203v706zM19 898h162l65 -129h-127z" />
    <glyph glyph-name="Iacute" unicode="&#xcd;" horiz-adv-x="333" 
d="M65 706h203v-706h-203v706zM325 898l-100 -129h-127l65 129h162z" />
    <glyph glyph-name="Icircumflex" unicode="&#xce;" horiz-adv-x="333" 
d="M65 706h203v-706h-203v706zM167 903l180 -85l-93 -49l-87 42l-89 -42l-91 48z" />
    <glyph glyph-name="Idieresis" unicode="&#xcf;" horiz-adv-x="333" 
d="M65 706h203v-706h-203v706zM-23 773q-25 27 -25 62q0 37 26 62.5t62 25.5t62 -26t26 -63q-1 -37 -26.5 -62t-61.5 -25q-34 0 -63 26zM225 773q-25 25 -25 62t25.5 62.5t62.5 25.5q36 0 61.5 -26t25.5 -63q0 -36 -26 -61.5t-62 -25.5t-62 26z" />
    <glyph glyph-name="Ntilde" unicode="&#xd1;" horiz-adv-x="833" 
d="M62 706h199l256 -337q31 -42 60 -84q0 34 -2 100l-4 321h199v-706h-200l-248 331q-18 25 -41 58q-9 13 -25 37q3 -105 3 -108l4 -318h-201v706zM320 776h-91q15 65 36 92q28 33 68 33q19 0 97 -21q26 -6 39 -6q28 1 42 25h91q-13 -69 -42 -99q-13 -15 -33 -22
q-16 -6 -35 -6q-29 0 -84 17q-38 11 -51 11q-24 0 -37 -24z" />
    <glyph glyph-name="Ograve" unicode="&#xd2;" horiz-adv-x="854" 
d="M434 724q146 0 240 -72q22 -17 43 -39.5t45 -58t38.5 -86t14.5 -107.5q0 -149 -92 -254q-111 -125 -307 -125q-182 0 -282 109q-36 39 -66.5 105.5t-30.5 155.5q0 162 105 266q106 106 292 106zM432 557q-46 0 -84 -18q-105 -49 -105 -188q0 -48 13 -85q19 -56 64 -87.5
t105 -31.5q85 0 133 54q51 57 51 156q0 79 -34.5 126t-77.5 63q-30 11 -65 11zM280 898h162l65 -129h-127z" />
    <glyph glyph-name="Oacute" unicode="&#xd3;" horiz-adv-x="854" 
d="M434 724q146 0 240 -72q22 -17 43 -39.5t45 -58t38.5 -86t14.5 -107.5q0 -149 -92 -254q-111 -125 -307 -125q-182 0 -282 109q-36 39 -66.5 105.5t-30.5 155.5q0 162 105 266q106 106 292 106zM432 557q-46 0 -84 -18q-105 -49 -105 -188q0 -48 13 -85q19 -56 64 -87.5
t105 -31.5q85 0 133 54q51 57 51 156q0 79 -34.5 126t-77.5 63q-30 11 -65 11zM585 898l-100 -129h-127l66 129h161z" />
    <glyph glyph-name="Ocircumflex" unicode="&#xd4;" horiz-adv-x="854" 
d="M434 724q146 0 240 -72q22 -17 43 -39.5t45 -58t38.5 -86t14.5 -107.5q0 -149 -92 -254q-111 -125 -307 -125q-182 0 -282 109q-36 39 -66.5 105.5t-30.5 155.5q0 162 105 266q106 106 292 106zM432 557q-46 0 -84 -18q-105 -49 -105 -188q0 -48 13 -85q19 -56 64 -87.5
t105 -31.5q85 0 133 54q51 57 51 156q0 79 -34.5 126t-77.5 63q-30 11 -65 11zM427 903l181 -85l-94 -49l-87 42l-88 -42l-92 48z" />
    <glyph glyph-name="Otilde" unicode="&#xd5;" horiz-adv-x="854" 
d="M434 724q146 0 240 -72q22 -17 43 -39.5t45 -58t38.5 -86t14.5 -107.5q0 -149 -92 -254q-111 -125 -307 -125q-182 0 -282 109q-36 39 -66.5 105.5t-30.5 155.5q0 162 105 266q106 106 292 106zM432 557q-46 0 -84 -18q-105 -49 -105 -188q0 -48 13 -85q19 -56 64 -87.5
t105 -31.5q85 0 133 54q51 57 51 156q0 79 -34.5 126t-77.5 63q-30 11 -65 11zM331 776h-91q13 64 36 92q27 33 67 33q19 0 97 -21q26 -6 39 -6q28 1 42 25h92q-16 -72 -42 -99q-16 -16 -33 -22q-16 -6 -36 -6q-27 0 -84 17q-38 11 -51 11q-25 0 -36 -24z" />
    <glyph glyph-name="Odieresis" unicode="&#xd6;" horiz-adv-x="854" 
d="M234 773q-26 26 -26 62q1 37 26.5 62.5t61.5 25.5q37 0 62.5 -26t25.5 -63q0 -36 -26 -61.5t-62 -25.5t-62 26zM496 773q-25 25 -25 62t25.5 62.5t62.5 25.5q36 0 61.5 -26t25.5 -63q0 -36 -26 -61.5t-62 -25.5t-62 26zM434 724q146 0 240 -72q22 -17 43 -39.5t45 -58
t38.5 -86t14.5 -107.5q0 -149 -92 -254q-111 -125 -307 -125q-182 0 -282 109q-36 39 -66.5 105.5t-30.5 155.5q0 162 105 266q106 106 292 106zM432 557q-46 0 -84 -18q-105 -49 -105 -188q0 -48 13 -85q19 -56 64 -87.5t105 -31.5q85 0 133 54q51 57 51 156
q0 79 -34.5 126t-77.5 63q-30 11 -65 11z" />
    <glyph glyph-name="multiply" unicode="&#xd7;" 
d="M516 19l-183 182l-182 -182l-90 91l182 181l-182 183l90 88l182 -181l183 181l89 -88l-181 -183l181 -181z" />
    <glyph glyph-name="Oslash" unicode="&#xd8;" horiz-adv-x="854" 
d="M770 768l74 -78l-103 -104q23 -34 30 -47q44 -88 44 -181q0 -69 -24 -134q-12 -32 -28.5 -61.5t-47.5 -63.5t-70.5 -59t-99.5 -41.5t-131 -16.5q-119 0 -220 59l-105 -104l-76 76l101 101q-3 5 -9.5 14.5t-11.5 17.5t-9 16q-44 82 -44 189q0 106 48 192q47 84 131 131
q90 50 212 50q105 0 180 -33q33 -16 52 -30zM257 257l272 272q-2 1 -9.5 6t-12.5 7q-30 15 -75 15q-46 0 -87 -20q-104 -50 -104 -189q0 -50 16 -91zM597 445l-270 -272q8 -7 17 -11q34 -16 82 -16q44 0 81 17q54 26 80.5 77.5t26.5 115.5q0 45 -17 89z" />
    <glyph glyph-name="Ugrave" unicode="&#xd9;" horiz-adv-x="750" 
d="M263 706v-417q1 -5 1 -15t1 -15q7 -112 111 -112q58 0 89 41q22 30 24 101v416h199v-449q0 -1 -0.5 -12.5t-0.5 -16.5t-1 -17.5t-3 -21t-5.5 -22t-8 -24.5t-11 -24.5t-15.5 -25.5q-44 -64 -115 -87t-165 -23q-150 0 -227 66q-39 37 -57 82q-14 39 -16 128v448h200z
M228 898h161l66 -129h-127z" />
    <glyph glyph-name="Uacute" unicode="&#xda;" horiz-adv-x="750" 
d="M263 706v-417q1 -5 1 -15t1 -15q7 -112 111 -112q58 0 89 41q22 30 24 101v416h199v-449q0 -1 -0.5 -12.5t-0.5 -16.5t-1 -17.5t-3 -21t-5.5 -22t-8 -24.5t-11 -24.5t-15.5 -25.5q-44 -64 -115 -87t-165 -23q-150 0 -227 66q-39 37 -57 82q-14 39 -16 128v448h200z
M533 898l-100 -129h-127l66 129h161z" />
    <glyph glyph-name="Ucircumflex" unicode="&#xdb;" horiz-adv-x="750" 
d="M263 706v-417q1 -5 1 -15t1 -15q7 -112 111 -112q58 0 89 41q22 30 24 101v416h199v-449q0 -1 -0.5 -12.5t-0.5 -16.5t-1 -17.5t-3 -21t-5.5 -22t-8 -24.5t-11 -24.5t-15.5 -25.5q-44 -64 -115 -87t-165 -23q-150 0 -227 66q-39 37 -57 82q-14 39 -16 128v448h200z
M375 903l180 -85l-93 -49l-87 42l-88 -42l-92 48z" />
    <glyph glyph-name="Udieresis" unicode="&#xdc;" horiz-adv-x="750" 
d="M263 706v-417q1 -5 1 -15t1 -15q7 -112 111 -112q58 0 89 41q22 30 24 101v416h199v-449q0 -1 -0.5 -12.5t-0.5 -16.5t-1 -17.5t-3 -21t-5.5 -22t-8 -24.5t-11 -24.5t-15.5 -25.5q-44 -64 -115 -87t-165 -23q-150 0 -227 66q-39 37 -57 82q-14 39 -16 128v448h200z
M182 773q-26 26 -26 62q0 37 26 62.5t62 25.5q37 0 62.5 -26t25.5 -63q0 -36 -26 -61.5t-62 -25.5t-62 26zM444 773q-25 25 -25 62t25.5 62.5t62.5 25.5q36 0 61.5 -26t25.5 -63q0 -36 -26 -61.5t-62 -25.5t-62 26z" />
    <glyph glyph-name="germandbls" unicode="&#xdf;" horiz-adv-x="604" 
d="M288 -16v156q35 4 48 9q62 21 62 97q0 54 -30 82q-27 21 -63 21q-3 0 -10.5 -0.5t-11.5 -0.5l1 133q61 0 80 29q8 16 8 33q0 22 -15.5 42t-51.5 20q-52 0 -64 -40q-4 -14 -3 -33v-532h-184v514q0 6 1 20t1 20q7 110 89 164q61 40 161 40q159 0 212 -100q24 -40 23 -96
q0 -66 -39 -110l-25 -25q-6 -4 -16 -10q37 -16 55 -31q72 -55 71 -158q0 -49 -14 -87q-21 -55 -65.5 -93t-101.5 -53q-43 -11 -118 -11z" />
    <glyph glyph-name="agrave" unicode="&#xe0;" horiz-adv-x="646" 
d="M409 436l-3 47h187v-483h-187l3 43q-23 -18 -35 -26t-46.5 -20t-72.5 -12q-78 0 -136 46q-88 68 -88 206q0 96 44 164q63 96 185 96q69 0 116 -33q10 -6 33 -28zM324 343q-25 0 -41 -6q-63 -25 -63 -99q0 -26 8 -46q24 -55 94 -55q26 0 44 8q21 9 39.5 33.5t18.5 64.5
q0 20 -7 40q-21 60 -93 60zM120 729h203l92 -192h-144z" />
    <glyph glyph-name="aacute" unicode="&#xe1;" horiz-adv-x="646" 
d="M409 436l-3 47h187v-483h-187l3 43q-23 -18 -35 -26t-46.5 -20t-72.5 -12q-78 0 -136 46q-88 68 -88 206q0 96 44 164q63 96 185 96q69 0 116 -33q10 -6 33 -28zM324 343q-25 0 -41 -6q-63 -25 -63 -99q0 -26 8 -46q24 -55 94 -55q26 0 44 8q21 9 39.5 33.5t18.5 64.5
q0 20 -7 40q-21 60 -93 60zM530 729l-151 -192h-144l92 192h203z" />
    <glyph glyph-name="acircumflex" unicode="&#xe2;" horiz-adv-x="646" 
d="M409 436l-3 47h187v-483h-187l3 43q-23 -18 -35 -26t-46.5 -20t-72.5 -12q-78 0 -136 46q-88 68 -88 206q0 96 44 164q63 96 185 96q69 0 116 -33q10 -6 33 -28zM324 343q-25 0 -41 -6q-63 -25 -63 -99q0 -26 8 -46q24 -55 94 -55q26 0 44 8q21 9 39.5 33.5t18.5 64.5
q0 20 -7 40q-21 60 -93 60zM320 731l226 -118l-106 -73l-118 60l-118 -62l-109 74z" />
    <glyph glyph-name="atilde" unicode="&#xe3;" horiz-adv-x="646" 
d="M409 436l-3 47h187v-483h-187l3 43q-23 -18 -35 -26t-46.5 -20t-72.5 -12q-78 0 -136 46q-88 68 -88 206q0 96 44 164q63 96 185 96q69 0 116 -33q10 -6 33 -28zM324 343q-25 0 -41 -6q-63 -25 -63 -99q0 -26 8 -46q24 -55 94 -55q26 0 44 8q21 9 39.5 33.5t18.5 64.5
q0 20 -7 40q-21 60 -93 60zM450 729h102q-4 -33 -7.5 -52.5t-15 -45t-30.5 -43.5q-32 -31 -78 -31q-51 0 -105 27q-51 22 -77 22q-37 0 -41 -45l-104 1q4 57 26 98q39 73 121 73q23 0 41.5 -6t67.5 -26q41 -16 59 -16q25 0 36 25q3 6 5 19z" />
    <glyph glyph-name="adieresis" unicode="&#xe4;" horiz-adv-x="646" 
d="M400 572q-26 26 -26 63t26.5 63t62.5 26q37 0 63 -26.5t26 -62.5q0 -37 -26.5 -63t-62.5 -26q-37 0 -63 26zM142 572q-26 26 -26 63t26.5 63t63.5 26t63 -26.5t26 -62.5q-1 -37 -27 -63t-63 -26t-63 26zM409 436l-3 47h187v-483h-187l3 43q-23 -18 -35 -26t-46.5 -20
t-72.5 -12q-78 0 -136 46q-88 68 -88 206q0 96 44 164q63 96 185 96q69 0 116 -33q10 -6 33 -28zM324 343q-25 0 -41 -6q-63 -25 -63 -99q0 -26 8 -46q24 -55 94 -55q26 0 44 8q21 9 39.5 33.5t18.5 64.5q0 20 -7 40q-21 60 -93 60z" />
    <glyph glyph-name="aring" unicode="&#xe5;" horiz-adv-x="646" 
d="M409 436l-3 47h187v-483h-187l3 43q-23 -18 -35 -26t-46.5 -20t-72.5 -12q-78 0 -136 46q-88 68 -88 206q0 96 44 164q63 96 185 96q69 0 116 -33q10 -6 33 -28zM324 343q-25 0 -41 -6q-63 -25 -63 -99q0 -26 8 -46q24 -55 94 -55q26 0 44 8q21 9 39.5 33.5t18.5 64.5
q0 20 -7 40q-21 60 -93 60zM275 549q-34 34 -34 82q0 49 34.5 83t82.5 34q48 -1 82 -35t34 -82q0 -49 -34.5 -83t-82.5 -34q-52 4 -82 35zM327 600q10 -13 31 -13q19 0 31.5 13t12.5 31t-13.5 31t-31.5 13t-31 -13t-13 -31q2 -20 14 -31z" />
    <glyph glyph-name="ae" unicode="&#xe6;" horiz-adv-x="917" 
d="M890 199h-375q0 -15 12 -41q27 -54 86 -54q40 0 65 23q8 8 15 19h184q-23 -65 -71 -103q-76 -59 -196 -59q-88 0 -153 32q-20 11 -40 26q-24 -17 -43 -27t-58.5 -20.5t-85.5 -10.5q-81 0 -129 31q-70 46 -69 134q0 99 87 140q51 22 109 22q52 0 113 -25q-3 36 -20 55
q-27 27 -86 27q-79 0 -148 -36v145q100 22 172 22q97 0 143 -31q8 -5 32 -26q27 17 43.5 26t57.5 20t86 11q53 0 95 -14q127 -39 162 -170q12 -42 12 -116zM521 303h184q-4 17 -15 33q-25 38 -74 38q-32 0 -53 -14q-23 -15 -42 -57zM281 199q-35 0 -54 -15.5t-19 -35.5
q0 -9 6 -21q15 -25 57 -25q48 0 67 28q7 10 7 23q0 19 -16 32.5t-48 13.5z" />
    <glyph glyph-name="ccedilla" unicode="&#xe7;" horiz-adv-x="437" 
d="M420 470l-1 -166q-46 38 -95 38q-45 0 -73 -29t-27 -73q0 -44 27 -71.5t72 -27.5q49 0 96 37v-162q-62 -31 -133 -31q-98 0 -165 55q-87 70 -87 196q0 142 107 216q50 31 90 39q22 6 60 6q55 0 129 -27zM290 -43l94 -75l-146 -116l-80 66z" />
    <glyph glyph-name="egrave" unicode="&#xe8;" horiz-adv-x="604" 
d="M583 199l-374 -1q16 -91 99 -91q53 0 76 43h193q-7 -20 -17 -38q-28 -52 -89.5 -90t-162.5 -38q-71 0 -123 18q-26 9 -49.5 24.5t-48.5 42.5t-39.5 71t-14.5 99q0 105 56 170q80 90 221 90q121 0 194 -69q44 -42 63 -99q16 -50 16 -132zM213 304h187q-6 18 -12 27
q-26 41 -81 41t-82 -45q-4 -7 -12 -23zM99 729h203l92 -192h-144z" />
    <glyph glyph-name="eacute" unicode="&#xe9;" horiz-adv-x="604" 
d="M583 199l-374 -1q16 -91 99 -91q53 0 76 43h193q-7 -20 -17 -38q-28 -52 -89.5 -90t-162.5 -38q-71 0 -123 18q-26 9 -49.5 24.5t-48.5 42.5t-39.5 71t-14.5 99q0 105 56 170q80 90 221 90q121 0 194 -69q44 -42 63 -99q16 -50 16 -132zM213 304h187q-6 18 -12 27
q-26 41 -81 41t-82 -45q-4 -7 -12 -23zM509 729l-151 -192h-144l93 192h202z" />
    <glyph glyph-name="ecircumflex" unicode="&#xea;" horiz-adv-x="604" 
d="M583 199l-374 -1q16 -91 99 -91q53 0 76 43h193q-7 -20 -17 -38q-28 -52 -89.5 -90t-162.5 -38q-71 0 -123 18q-26 9 -49.5 24.5t-48.5 42.5t-39.5 71t-14.5 99q0 105 56 170q80 90 221 90q121 0 194 -69q44 -42 63 -99q16 -50 16 -132zM213 304h187q-6 18 -12 27
q-26 41 -81 41t-82 -45q-4 -7 -12 -23zM299 731l227 -118l-107 -73l-118 60l-118 -62l-109 74z" />
    <glyph glyph-name="edieresis" unicode="&#xeb;" horiz-adv-x="604" 
d="M583 199l-374 -1q16 -91 99 -91q53 0 76 43h193q-7 -20 -17 -38q-28 -52 -89.5 -90t-162.5 -38q-71 0 -123 18q-26 9 -49.5 24.5t-48.5 42.5t-39.5 71t-14.5 99q0 105 56 170q80 90 221 90q121 0 194 -69q44 -42 63 -99q16 -50 16 -132zM213 304h187q-6 18 -12 27
q-26 41 -81 41t-82 -45q-4 -7 -12 -23zM367 572q-26 26 -26 63t26.5 63t63.5 26t63 -26.5t26 -62.5q-1 -37 -27 -63t-63 -26t-63 26zM110 572q-26 25 -26 63q0 37 26 63t63 26t63 -26.5t26 -62.5q0 -37 -26.5 -63t-62.5 -26q-37 0 -63 26z" />
    <glyph glyph-name="igrave" unicode="&#xec;" horiz-adv-x="292" 
d="M238 483v-483h-183v483h183zM-57 729h203l92 -192h-144z" />
    <glyph glyph-name="iacute" unicode="&#xed;" horiz-adv-x="292" 
d="M238 483v-483h-183v483h183zM353 729l-151 -192h-144l92 192h203z" />
    <glyph glyph-name="icircumflex" unicode="&#xee;" horiz-adv-x="292" 
d="M238 483v-483h-183v483h183zM143 731l226 -118l-106 -73l-118 60l-118 -62l-109 74z" />
    <glyph glyph-name="idieresis" unicode="&#xef;" horiz-adv-x="292" 
d="M238 483v-483h-183v483h183zM211 572q-26 26 -26 63t26.5 63t62.5 26q37 0 63 -26.5t26 -62.5q0 -37 -26 -63t-63 -26t-63 26zM-47 572q-26 26 -26 63q1 37 27 63t63 26t63 -26.5t26 -62.5q0 -37 -26.5 -63t-63.5 -26q-36 0 -63 26z" />
    <glyph glyph-name="ntilde" unicode="&#xf1;" horiz-adv-x="625" 
d="M569 317v-317h-185v245q0 66 -31 88q-17 10 -40 10q-24 0 -40 -11q-36 -24 -36 -87v-245h-184v483h187l-3 -62q22 22 36 34t52 27t81 15q70 0 106 -32t48 -73q8 -26 9 -75zM440 729h102q-5 -34 -8.5 -53t-15 -44.5t-29.5 -43.5q-32 -31 -78 -31q-43 0 -106 27
q-51 22 -76 22q-6 0 -11 -1t-9 -3.5t-7 -5t-5 -6t-3.5 -6.5t-3 -7t-2 -6t-0.5 -6l-1 -4l-104 1q4 57 26 98q39 73 121 73q23 0 42.5 -6t67.5 -26q39 -16 58 -16q26 0 36 25l2 6t2 7t2 6z" />
    <glyph glyph-name="ograve" unicode="&#xf2;" horiz-adv-x="646" 
d="M326 499q68 0 119 -17q81 -28 125.5 -93.5t44.5 -152.5q0 -140 -115 -210q-70 -42 -181 -42q-115 0 -186 49q-101 72 -101 202q0 63 24 115q35 75 108 111.5t162 37.5zM327 346q-48 0 -76.5 -29t-28.5 -77q0 -47 28 -76t75 -29q17 0 40 7q62 25 62 100q0 23 -7 41
q-8 23 -30.5 43t-62.5 20zM120 729h203l92 -192h-144z" />
    <glyph glyph-name="oacute" unicode="&#xf3;" horiz-adv-x="646" 
d="M326 499q68 0 119 -17q81 -28 125.5 -93.5t44.5 -152.5q0 -140 -115 -210q-70 -42 -181 -42q-115 0 -186 49q-101 72 -101 202q0 63 24 115q35 75 108 111.5t162 37.5zM327 346q-48 0 -76.5 -29t-28.5 -77q0 -47 28 -76t75 -29q17 0 40 7q62 25 62 100q0 23 -7 41
q-8 23 -30.5 43t-62.5 20zM530 729l-151 -192h-144l92 192h203z" />
    <glyph glyph-name="ocircumflex" unicode="&#xf4;" horiz-adv-x="646" 
d="M326 499q68 0 119 -17q81 -28 125.5 -93.5t44.5 -152.5q0 -140 -115 -210q-70 -42 -181 -42q-115 0 -186 49q-101 72 -101 202q0 63 24 115q35 75 108 111.5t162 37.5zM327 346q-48 0 -76.5 -29t-28.5 -77q0 -47 28 -76t75 -29q17 0 40 7q62 25 62 100q0 23 -7 41
q-8 23 -30.5 43t-62.5 20zM320 731l226 -118l-106 -73l-118 60l-118 -62l-109 74z" />
    <glyph glyph-name="otilde" unicode="&#xf5;" horiz-adv-x="646" 
d="M326 499q68 0 119 -17q81 -28 125.5 -93.5t44.5 -152.5q0 -140 -115 -210q-70 -42 -181 -42q-115 0 -186 49q-101 72 -101 202q0 63 24 115q35 75 108 111.5t162 37.5zM327 346q-48 0 -76.5 -29t-28.5 -77q0 -47 28 -76t75 -29q17 0 40 7q62 25 62 100q0 23 -7 41
q-8 23 -30.5 43t-62.5 20zM450 729h102q-4 -33 -7.5 -52.5t-15 -45t-30.5 -43.5q-32 -31 -78 -31q-51 0 -105 27q-51 22 -77 22q-37 0 -41 -45l-104 1q4 57 26 98q39 73 121 73q23 0 41.5 -6t67.5 -26q41 -16 59 -16q25 0 36 25q3 6 5 19z" />
    <glyph glyph-name="odieresis" unicode="&#xf6;" horiz-adv-x="646" 
d="M391 572q-26 26 -26 63t26.5 63t62.5 26q37 0 63 -26.5t26 -62.5q0 -37 -26 -63t-63 -26t-63 26zM133 572q-26 26 -26 63q1 37 27 63t63 26t63 -26.5t26 -62.5q0 -37 -26.5 -63t-63.5 -26q-36 0 -63 26zM326 499q68 0 119 -17q81 -28 125.5 -93.5t44.5 -152.5
q0 -140 -115 -210q-70 -42 -181 -42q-115 0 -186 49q-101 72 -101 202q0 63 24 115q35 75 108 111.5t162 37.5zM327 346q-48 0 -76.5 -29t-28.5 -77q0 -47 28 -76t75 -29q17 0 40 7q62 25 62 100q0 23 -7 41q-8 23 -30.5 43t-62.5 20z" />
    <glyph glyph-name="divide" unicode="&#xf7;" 
d="M414 110q-1 -34 -24 -57t-57 -22q-34 0 -57.5 22.5t-22.5 56.5q0 34 23 57.5t57 23.5t57.5 -23.5t23.5 -57.5zM414 468q-1 -33 -24 -56t-57 -23t-57.5 23t-22.5 57q0 18 6 33q20 46 74 48q34 -1 57.5 -24.5t23.5 -57.5zM667 227h-667v127h667v-127z" />
    <glyph glyph-name="oslash" unicode="&#xf8;" horiz-adv-x="646" 
d="M596 538l51 -57l-87 -78q56 -81 55 -168q0 -131 -101 -201q-72 -50 -192 -50q-88 0 -145 25q-11 5 -33 17l-89 -79l-52 58l81 74q-51 68 -51 153q0 119 77 192q81 75 221 75q97 0 172 -44zM213 195l168 151q-33 12 -59 12q-25 0 -49 -10q-69 -27 -69 -103q0 -23 9 -50z
M436 292l-170 -154q36 -15 61 -15q27 0 49 9q14 6 28 16.5t28.5 35t14.5 55.5q0 22 -11 53z" />
    <glyph glyph-name="ugrave" unicode="&#xf9;" horiz-adv-x="625" 
d="M56 483h182v-264q2 -49 19 -68q19 -20 55 -20q27 0 45 12q31 22 29 88v252h183v-281q0 -24 -4 -52q-13 -70 -59 -108q-66 -57 -201 -57q-126 0 -191 59q-29 26 -42 58q-16 37 -16 120v261zM110 729h203l92 -192h-144z" />
    <glyph glyph-name="uacute" unicode="&#xfa;" horiz-adv-x="625" 
d="M56 483h182v-264q2 -49 19 -68q19 -20 55 -20q27 0 45 12q31 22 29 88v252h183v-281q0 -24 -4 -52q-13 -70 -59 -108q-66 -57 -201 -57q-126 0 -191 59q-29 26 -42 58q-16 37 -16 120v261zM520 729l-151 -192h-144l92 192h203z" />
    <glyph glyph-name="ucircumflex" unicode="&#xfb;" horiz-adv-x="625" 
d="M56 483h182v-264q2 -49 19 -68q19 -20 55 -20q27 0 45 12q31 22 29 88v252h183v-281q0 -24 -4 -52q-13 -70 -59 -108q-66 -57 -201 -57q-126 0 -191 59q-29 26 -42 58q-16 37 -16 120v261zM310 731l226 -118l-106 -73l-118 60l-119 -62l-108 74z" />
    <glyph glyph-name="udieresis" unicode="&#xfc;" horiz-adv-x="625" 
d="M379 572q-26 26 -26 63t26.5 63t63.5 26t63 -26.5t26 -62.5q-1 -37 -27 -63t-63 -26t-63 26zM122 572q-26 25 -26 63q0 37 26 63t63 26t63 -26.5t26 -62.5q0 -37 -26.5 -63t-62.5 -26q-37 0 -63 26zM56 483h182v-264q2 -49 19 -68q19 -20 55 -20q27 0 45 12q31 22 29 88
v252h183v-281q0 -24 -4 -52q-13 -70 -59 -108q-66 -57 -201 -57q-126 0 -191 59q-29 26 -42 58q-16 37 -16 120v261z" />
    <glyph glyph-name="ydieresis" unicode="&#xff;" horiz-adv-x="625" 
d="M-5 483h202l119 -238l122 238h196l-368 -685h-201l153 281zM378 572q-26 25 -26 63q0 37 26 63t63 26t63 -26.5t26 -62.5q0 -37 -26.5 -63t-62.5 -26q-37 0 -63 26zM120 572q-26 26 -26 63t26.5 63t63.5 26q36 0 62 -26.5t26 -62.5q0 -37 -26 -63t-63 -26t-63 26z" />
    <glyph glyph-name="dotlessi" unicode="&#x131;" horiz-adv-x="292" 
d="M238 483v-483h-183v483h183z" />
    <glyph glyph-name="OE" unicode="&#x152;" horiz-adv-x="1062" 
d="M620 655l-4 51h418v-164h-231v-101h202v-165h-202v-110h237v-166h-423l4 51q-29 -20 -46 -29q-72 -40 -181 -40q-129 0 -217 65q-141 108 -141 309q0 134 69 230q38 52 90 85q84 53 213 53q101 0 170 -39q17 -9 42 -30zM429 558q-43 0 -73 -11q-45 -17 -79 -62.5
t-33 -126.5q0 -91 38 -139t90 -63q25 -7 60 -7q47 0 76 11q77 27 105 109q12 32 12 83q0 85 -34.5 132t-82.5 63q-34 12 -79 11z" />
    <glyph glyph-name="oe" unicode="&#x153;" horiz-adv-x="1000" 
d="M969 196h-375q8 -43 31 -66q12 -13 29 -21q14 -6 37 -6q48 0 78 47l186 -1q-30 -83 -93 -121q-71 -44 -172 -44q-52 0 -93.5 10.5t-60.5 21.5t-47 31q-29 -21 -32 -23q-68 -40 -159 -40q-110 0 -180 59q-85 70 -85 195q0 120 74 191q77 70 198 70q50 0 89.5 -13t56 -24.5
t41.5 -34.5q22 18 32 24q70 48 173 48q111 0 182 -60q47 -36 70 -100q16 -46 20 -143zM599 303h185q-8 21 -15 32q-25 37 -73 37q-55 0 -84 -43q-4 -7 -13 -26zM311 350q-26 0 -46 -10q-57 -27 -57 -99q0 -24 7 -41q8 -25 32 -45.5t67 -20.5q25 0 43 8t31 22.5t18 31
t6.5 26.5t1.5 19q0 46 -28.5 78t-74.5 31z" />
    <glyph glyph-name="Ydieresis" unicode="&#x178;" horiz-adv-x="688" 
d="M-9 706h240l111 -176l109 176h242l-250 -364v-342h-200v341zM155 773q-26 26 -26 62q0 37 26 62.5t62 25.5t62 -26t26 -63q0 -36 -26 -61.5t-62 -25.5t-62 26zM402 773q-25 25 -25 62t25.5 62.5t62.5 25.5q36 0 61.5 -26t25.5 -63q0 -36 -26 -61.5t-62 -25.5t-62 26z" />
    <glyph glyph-name="circumflex" unicode="&#x2c6;" horiz-adv-x="271" 
d="M49 731l226 -118l-106 -73l-118 60l-118 -62l-109 74z" />
    <glyph glyph-name="caron" unicode="&#x2c7;" horiz-adv-x="271" 
d="M51 538l-226 118l106 73l118 -60l119 62l108 -74z" />
    <glyph glyph-name="tilde" unicode="&#x2dc;" horiz-adv-x="271" 
d="M179 729h102q-4 -33 -7.5 -52.5t-15 -45t-30.5 -43.5q-31 -31 -78 -31q-51 0 -105 27q-51 22 -76 22q-37 0 -42 -45l-104 1q4 57 26 98q39 73 121 73q23 0 41.5 -6t67.5 -26q41 -16 59 -16q25 0 36 25q3 6 5 19z" />
    <glyph glyph-name="endash" unicode="&#x2013;" 
d="M56 326h555v-169h-555v169z" />
    <glyph glyph-name="emdash" unicode="&#x2014;" 
d="M667 227h-667v127h667v-127z" />
    <glyph glyph-name="quoteleft" unicode="&#x2018;" horiz-adv-x="292" 
d="M189 384h-186l158 322h141z" />
    <glyph glyph-name="quoteright" unicode="&#x2019;" horiz-adv-x="292" 
d="M103 706h185l-157 -322h-141z" />
    <glyph glyph-name="quotesinglbase" unicode="&#x201a;" horiz-adv-x="292" 
d="M103 191h185l-157 -322h-141z" />
    <glyph glyph-name="quotedblleft" unicode="&#x201c;" horiz-adv-x="479" 
d="M379 407h-164l145 299h128zM170 407h-163l144 299h128z" />
    <glyph glyph-name="quotedblright" unicode="&#x201d;" horiz-adv-x="479" 
d="M100 706h164l-145 -299h-128zM309 706h164l-145 -299h-128z" />
    <glyph glyph-name="quotedblbase" unicode="&#x201e;" horiz-adv-x="479" 
d="M100 169h164l-145 -300h-128zM309 169h164l-145 -300h-128z" />
    <glyph glyph-name="dagger" unicode="&#x2020;" 
d="M243 706h178v-246h206v-159h-206v-509h-178v509h-205v159h205v246z" />
    <glyph glyph-name="bullet" unicode="&#x2022;" horiz-adv-x="333" 
d="M322 352q0 -36 -13 -65q-18 -43 -55 -66.5t-84 -23.5q-37 0 -68 14q-40 19 -65 58t-25 84q0 65 46.5 110t110.5 45q35 0 66 -14q19 -9 36 -23t34 -46.5t17 -72.5z" />
    <glyph glyph-name="ellipsis" unicode="&#x2026;" horiz-adv-x="1000" 
d="M913 75q0 -34 -22.5 -57.5t-56.5 -23.5q-15 0 -28 5q-11 4 -21 11t-20.5 24.5t-10.5 39.5q0 33 23.5 56.5t56.5 23.5t56 -23t23 -56zM580 75q0 -34 -22.5 -57.5t-56.5 -23.5q-15 0 -27 5q-53 18 -53 75q0 20 7 34q21 46 73 46q33 0 55.5 -23t23.5 -56zM246 75
q0 -34 -22.5 -57.5t-56.5 -23.5q-15 0 -28 5q-52 21 -52 75q0 33 23.5 56.5t57.5 23.5q33 0 55.5 -23t22.5 -56z" />
    <glyph glyph-name="fraction" unicode="&#x2044;" horiz-adv-x="125" 
d="M215 736l61 -32l-366 -727l-63 32z" />
    <glyph glyph-name="trademark" unicode="&#x2122;" horiz-adv-x="688" 
d="M674 374h-82l4 177q1 34 6 67q-3 -9 -7.5 -27l-6.5 -26l-56 -191h-75l-59 192q-1 4 -3.5 11.5l-3.5 10.5q-4 20 -7 29q6 -44 7 -66l5 -177h-82v332h106l76 -239l71 239h107v-332zM187 374h-85v265h-102v67h287v-67h-100v-265z" />
    <glyph glyph-name="minus" unicode="&#x2212;" 
d="M667 227h-667v127h667v-127z" />
    <glyph glyph-name="Acute" unicode="&#xf6c9;" horiz-adv-x="271" 
d="M210 898l-100 -129h-126l65 129h161z" />
    <glyph glyph-name="Caron" unicode="&#xf6ca;" horiz-adv-x="271" 
d="M51 767l-181 85l94 50l86 -43l89 42l91 -48z" />
    <glyph glyph-name="Dieresis" unicode="&#xf6cb;" horiz-adv-x="271" 
d="M-137 773q-25 25 -25 62t25.5 62.5t62.5 25.5q36 0 61.5 -26t25.5 -63q0 -36 -26 -61.5t-62 -25.5t-62 26zM110 773q-25 27 -25 62q0 37 26 62.5t62 25.5t61.5 -26t25.5 -63t-25.5 -62t-62.5 -25q-33 0 -62 26z" />
    <glyph glyph-name="Grave" unicode="&#xf6ce;" horiz-adv-x="271" 
d="M-95 898h162l65 -129h-127z" />
    <glyph glyph-name="onefitted" unicode="&#xf6dc;" horiz-adv-x="375" 
d="M6 706h292v-706h-184v537h-108v169z" />
    <glyph glyph-name="fi" unicode="&#xfb01;" horiz-adv-x="646" 
d="M366 741v-145q-30 16 -52 16q-55 -1 -55 -73v-56h100v-122h-101v-361h-182v361h-79v122h79v65q0 5 0.5 13.5t1 15.5t1.5 13q8 78 53 123q25 25 64 39q27 9 68 9q49 0 102 -20zM592 483v-483h-183v483h183zM429 558q-28 28 -28 70q0 40 28.5 68.5t69.5 28.5t69.5 -28.5
t28.5 -69.5q0 -40 -29 -69t-69 -29t-70 29z" />
    <glyph glyph-name="fl" unicode="&#xfb02;" horiz-adv-x="646" 
d="M366 741v-145q-30 16 -52 16q-55 -1 -55 -73v-56h100v-122h-101v-361h-182v361h-79v122h79v65q0 5 0.5 13.5t1 15.5t1.5 13q8 78 53 123q25 25 64 39q27 9 68 9q49 0 102 -20zM408 747h183v-747h-183v747z" />
    <glyph glyph-name="Circumflex" horiz-adv-x="271" 
d="M52 903l181 -85l-94 -49l-87 42l-88 -42l-92 48z" />
    <glyph glyph-name="Tilde" horiz-adv-x="271" 
d="M-44 776h-91q13 64 36 92q27 33 67 33q19 0 97 -21q26 -6 39 -6q28 1 42 25h92q-16 -72 -42 -99q-16 -16 -33 -22q-16 -6 -36 -6q-27 0 -84 17q-38 11 -51 11q-23 0 -36 -24z" />
    </font>
</defs>
</svg>
